<svg width="24" height="25" viewBox="0 0 24 25" fill="none" xmlns="http://www.w3.org/2000/svg">
<g clip-path="url(#clip0)">
<path d="M21.4219 11.7945H21.203V10.2008C21.203 5.12608 17.0747 0.997803 12 0.997803C6.92531 0.997803 2.79703 5.12608 2.79703 10.2008V11.7945H2.57812C1.15641 11.7945 0 12.9514 0 14.3726V18.4039C0 19.8256 1.15641 20.982 2.57812 20.982L2.79703 20.998V24.9978H15.203V23.7945C15.203 22.0283 13.7662 20.5916 12 20.5916C10.3022 20.5916 8.90906 21.9195 8.80406 23.5916H4.20328V20.982H5.51578V13.2008H7.01578V10.2008C7.01578 7.45249 9.25172 5.21655 12 5.21655C14.7483 5.21655 16.9842 7.45249 16.9842 10.2008V13.2008H18.4842V20.982H21.4219C22.8436 20.982 24 19.8256 24 18.4039V14.3726C24 12.9514 22.8436 11.7945 21.4219 11.7945ZM12 21.9978C12.922 21.9978 13.6842 22.6958 13.7855 23.5916H10.2145C10.3158 22.6958 11.078 21.9978 12 21.9978ZM4.10953 19.5758H2.57812C1.93219 19.5758 1.40625 19.0503 1.40625 18.4039V14.3726C1.40625 13.7267 1.93219 13.2008 2.57812 13.2008H4.10953V19.5758ZM19.7967 11.7945H18.3905V10.2008C18.3905 6.67718 15.5236 3.8103 12 3.8103C8.47641 3.8103 5.60953 6.67718 5.60953 10.2008V11.7945H4.20328V10.2008C4.20328 5.90187 7.70062 2.40405 12 2.40405C16.2994 2.40405 19.7967 5.90187 19.7967 10.2008V11.7945ZM22.5938 18.4039C22.5938 19.0503 22.0683 19.5758 21.4219 19.5758H19.8905V13.2008H21.4219C22.0683 13.2008 22.5938 13.7267 22.5938 14.3726V18.4039Z" fill="#2643A0"/>
</g>
<defs>
<clipPath id="clip0">
<rect width="24" height="24" fill="white" transform="translate(0 0.997803)"/>
</clipPath>
</defs>
</svg>
