<?xml version="1.0" encoding="utf-8"?>
<!-- Generator: Adobe Illustrator 24.0.0, SVG Export Plug-In . SVG Version: 6.00 Build 0)  -->
<svg version="1.1" id="Layer_1" xmlns="http://www.w3.org/2000/svg" xmlns:xlink="http://www.w3.org/1999/xlink" x="0px" y="0px"
	 viewBox="0 0 559.4 115.8" style="enable-background:new 0 0 559.4 115.8;" xml:space="preserve">
<style type="text/css">
	.st0{fill:#061B66;}
	.st1{fill:#FFFFFF;}
</style>
<path d="M148.2,83.5V31.9h13.1c4.6,0,7.9,1.2,10,3.6c2.1,2.4,3.1,6,3.1,10.6c0,4.2-1.1,7.5-3.3,9.8c-2.2,2.3-5.5,3.5-9.7,3.5h-5.8
	v24H148.2z M155.6,54.4h3.3c3.2,0,5.5-0.6,6.7-1.7c1.2-1.1,1.8-3.3,1.8-6.4c0-1.3,0-2.4-0.1-3.2c-0.1-0.8-0.2-1.6-0.4-2.4
	c-0.2-0.7-0.5-1.3-0.9-1.7c-0.4-0.4-0.9-0.8-1.5-1c-0.6-0.3-1.4-0.5-2.3-0.6c-0.9-0.1-1.9-0.2-3.2-0.2h-3.4V54.4z"/>
<path d="M188.9,84.1c-2.1,0-3.8-0.3-5.2-0.9c-1.4-0.6-2.6-1.5-3.4-2.8c-0.8-1.2-1.4-2.6-1.8-4.2c-0.4-1.6-0.6-3.5-0.6-5.6V59.8
	c0-2.2,0.2-4,0.6-5.6c0.4-1.6,1-3,1.8-4.2c0.8-1.2,2-2.1,3.4-2.8c1.4-0.6,3.2-0.9,5.2-0.9c4,0,6.8,1.2,8.5,3.5
	c1.7,2.3,2.5,5.7,2.5,10.1v10.7c0,4.4-0.8,7.8-2.5,10.1C195.7,82.9,192.9,84.1,188.9,84.1 M188.9,79c0.6,0,1.2-0.1,1.7-0.3
	c0.5-0.2,0.9-0.5,1.1-0.9c0.3-0.4,0.5-0.9,0.7-1.3c0.2-0.4,0.3-1,0.4-1.7c0.1-0.8,0.1-1.4,0.1-1.8c0-0.5,0-1.2,0-2.1V59.4
	c0-0.8,0-1.4,0-1.8c0-0.4,0-0.9-0.1-1.6c0-0.7-0.1-1.2-0.2-1.6c-0.1-0.4-0.2-0.8-0.4-1.3c-0.2-0.5-0.4-0.8-0.7-1.1
	c-0.3-0.2-0.6-0.4-1.1-0.6c-0.4-0.2-0.9-0.3-1.5-0.3c-0.6,0-1,0.1-1.5,0.3c-0.4,0.2-0.8,0.4-1.1,0.6c-0.3,0.2-0.5,0.6-0.7,1.1
	c-0.2,0.5-0.3,0.9-0.4,1.3c-0.1,0.4-0.2,0.9-0.2,1.6c0,0.7-0.1,1.2-0.1,1.6c0,0.4,0,1,0,1.8v11.5c0,0.8,0,1.4,0,1.8
	c0,0.4,0,0.9,0.1,1.6c0,0.7,0.1,1.2,0.2,1.6c0.1,0.4,0.2,0.8,0.4,1.2c0.2,0.5,0.4,0.8,0.7,1.1c0.3,0.2,0.6,0.4,1.1,0.6
	C187.8,78.9,188.3,79,188.9,79"/>
<polygon points="206.4,83.4 206.4,31.8 213.4,31.8 213.4,62.7 223.6,46.7 230.9,46.7 222,61.1 230.6,83.5 223.7,83.5 216.6,64.7 
	213.4,69.4 213.4,83.4 "/>
<path d="M244.7,84.1c-2.2,0-4-0.3-5.5-0.9c-1.5-0.6-2.6-1.6-3.4-2.9c-0.8-1.3-1.4-2.8-1.7-4.5c-0.3-1.7-0.5-3.9-0.5-6.4v-8.4
	c0-2.6,0.2-4.7,0.5-6.5c0.4-1.8,0.9-3.3,1.8-4.5c0.8-1.3,2-2.2,3.4-2.8c1.5-0.6,3.3-0.9,5.4-0.9c1.3,0,2.5,0.1,3.6,0.4
	c1,0.2,1.9,0.6,2.7,1c0.8,0.4,1.4,1,1.9,1.8c0.5,0.7,1,1.5,1.3,2.3c0.3,0.8,0.6,1.8,0.8,3c0.2,1.2,0.3,2.3,0.4,3.5
	c0.1,1.2,0.1,2.5,0.1,4.1l0,3h-14.9v4.9v0.4c0,1,0,1.8,0,2.3c0,0.5,0.1,1.1,0.1,1.9c0.1,0.8,0.2,1.4,0.4,1.8
	c0.2,0.4,0.4,0.8,0.7,1.2c0.3,0.4,0.7,0.7,1.2,0.9c0.5,0.2,1.1,0.3,1.7,0.3c1.5,0,2.5-0.5,3.1-1.5c0.5-1,0.8-2.5,0.8-4.6v-2.2h6.8
	v1.4C255.4,80.1,251.8,84.1,244.7,84.1 M240.6,61.5h8v-3.3c0-1,0-1.8-0.1-2.5c-0.1-0.7-0.2-1.3-0.3-1.9c-0.2-0.6-0.4-1.1-0.7-1.5
	c-0.3-0.4-0.7-0.6-1.1-0.8c-0.5-0.2-1.1-0.3-1.7-0.3c-1.7,0-2.8,0.6-3.3,1.7c-0.5,1.2-0.8,3.4-0.8,6.6V61.5z"/>
<path d="M261.9,83.5V46.7h7V52c1.3-2.1,2.6-3.6,4-4.5c1.4-0.9,2.8-1.3,4.4-1.3c0.4,0,0.8,0,1.1,0.1v7.5c-1.3-0.5-2.6-0.7-3.8-0.7
	c-1.2,0-2.2,0.3-3.1,0.8c-0.9,0.5-1.7,1.4-2.6,2.8v26.9H261.9z"/>
<path d="M283.3,83.5V31.9h12.1c4.8,0,8.4,1,10.7,3.1c2.3,2.1,3.5,5.4,3.5,9.8c0,6.6-2.5,10.2-7.6,10.9c3.1,0.7,5.4,2.2,6.8,4.3
	s2.2,5,2.2,8.7c0,4.6-1.1,8.3-3.3,10.9c-2.2,2.6-5.6,3.9-10.2,3.9H283.3z M290.7,53.5h4.3c3,0,5.1-0.7,6.3-2
	c1.2-1.3,1.8-3.5,1.8-6.6c0-1-0.1-1.9-0.2-2.7c-0.1-0.8-0.3-1.4-0.6-1.9c-0.2-0.5-0.6-1-1.1-1.4c-0.5-0.4-1-0.7-1.5-0.9
	c-0.5-0.2-1.2-0.4-2-0.5c-0.8-0.1-1.6-0.2-2.4-0.2c-0.8,0-1.8,0-3,0h-1.7V53.5z M290.7,78.4h5c3.2,0,5.4-0.7,6.5-2.2
	c1.2-1.5,1.8-3.9,1.8-7.4c0-3.3-0.7-5.8-2.1-7.4c-1.4-1.6-3.7-2.4-6.8-2.4h-4.4V78.4z"/>
<path d="M323.7,84.1c-2.1,0-4-0.9-5.4-2.6c-1.5-1.7-2.2-3.7-2.2-6c0-1.7,0.3-3.3,0.9-4.7c0.6-1.4,1.2-2.6,1.9-3.4
	c0.7-0.9,1.8-1.8,3.4-2.7c1.6-0.9,2.9-1.6,3.8-2c0.9-0.4,2.5-1,4.7-1.9c0.1-0.1,0.2-0.1,0.3-0.1v-2.6c0-2.4-0.3-4.1-0.7-5.1
	c-0.5-1-1.5-1.5-3-1.5c-2.6,0-4,1.7-4,5.2v1.8l-6.9-0.2c0-0.4,0-0.8,0.1-1.4c0.2-3.7,1.3-6.3,3.2-8c1.9-1.7,4.6-2.5,8.1-2.5
	c3.6,0,6.3,1,7.9,2.9c1.6,1.9,2.4,4.9,2.4,8.8v16.8c0,2.8,0.2,5.7,0.6,8.8h-6.4c-0.4-2.1-0.8-3.9-0.9-5.4c-0.5,1.7-1.4,3.1-2.7,4.2
	C327.4,83.5,325.7,84.1,323.7,84.1 M326.5,78.2c0.9,0,1.8-0.3,2.6-1c0.9-0.7,1.5-1.4,1.9-2V64.7c-2.4,1.3-4.1,2.3-4.8,3
	c-2,1.6-3.1,3.5-3.1,5.8c0,1.5,0.3,2.7,0.9,3.5C324.6,77.7,325.4,78.2,326.5,78.2"/>
<path d="M351.5,84.1c-2.1,0-4-0.9-5.4-2.6c-1.5-1.7-2.2-3.7-2.2-6c0-1.7,0.3-3.3,0.9-4.7c0.6-1.4,1.2-2.6,1.9-3.4
	c0.7-0.9,1.8-1.8,3.4-2.7c1.6-0.9,2.9-1.6,3.8-2c0.9-0.4,2.5-1,4.7-1.9c0.1-0.1,0.2-0.1,0.3-0.1v-2.6c0-2.4-0.3-4.1-0.7-5.1
	c-0.5-1-1.5-1.5-3-1.5c-2.6,0-4,1.7-4,5.2v1.8l-6.9-0.2c0-0.4,0-0.8,0.1-1.4c0.2-3.7,1.3-6.3,3.2-8c1.9-1.7,4.6-2.5,8.1-2.5
	c3.6,0,6.3,1,7.9,2.9c1.6,1.9,2.4,4.9,2.4,8.8v16.8c0,2.8,0.2,5.7,0.6,8.8h-6.4c-0.4-2.1-0.8-3.9-0.9-5.4c-0.5,1.7-1.4,3.1-2.7,4.2
	C355.2,83.5,353.5,84.1,351.5,84.1 M354.3,78.2c0.9,0,1.8-0.3,2.6-1c0.9-0.7,1.5-1.4,1.9-2V64.7c-2.4,1.3-4.1,2.3-4.8,3
	c-2,1.6-3.1,3.5-3.1,5.8c0,1.5,0.3,2.7,0.9,3.5C352.4,77.7,353.2,78.2,354.3,78.2"/>
<polygon points="371.1,83.5 371.1,79 382.7,51.8 372.3,51.8 372.3,46.7 390.2,46.7 390.2,50.4 378.6,78.4 389.9,78.4 389.9,83.5 "/>
<path d="M395.6,34.1h7v7.2h-7V34.1z M395.6,46.7h7v36.8h-7V46.7z"/>
<rect x="409.8" y="76" width="7" height="7.6"/>
<path d="M432.7,84.1c-1.8,0-3.4-0.2-4.7-0.7c-1.3-0.5-2.4-1.1-3.2-1.9c-0.8-0.8-1.4-1.8-1.9-3.1c-0.5-1.3-0.8-2.6-1-4
	c-0.2-1.4-0.3-3-0.3-4.9v-8.5c0-2.5,0.1-4.5,0.4-6.2c0.3-1.7,0.8-3.2,1.6-4.5c0.8-1.3,1.9-2.3,3.4-3c1.5-0.6,3.3-1,5.5-1
	c2,0,3.7,0.2,5.1,0.7c1.4,0.5,2.4,1.2,3.2,2.2c0.8,1,1.3,2.2,1.6,3.6c0.3,1.4,0.5,3,0.5,5V60h-6.3v-2.2c0-2.4-0.3-4.1-0.8-5.1
	c-0.6-1-1.6-1.4-3.1-1.4c-1.7,0-2.8,0.6-3.3,1.7c-0.5,1.2-0.8,3.3-0.8,6.6v11.6c0,3.1,0.3,5.2,0.9,6.3c0.6,1.1,1.7,1.6,3.3,1.6
	c0.7,0,1.3-0.1,1.7-0.3c0.5-0.2,0.9-0.5,1.1-0.8c0.3-0.3,0.5-0.8,0.6-1.4c0.1-0.6,0.2-1.2,0.3-1.7c0-0.6,0.1-1.3,0.1-2.1v-3h6.3v2.6
	c0,2-0.2,3.7-0.5,5c-0.3,1.4-0.9,2.6-1.6,3.7c-0.8,1.1-1.8,1.9-3.2,2.4C436.4,83.8,434.7,84.1,432.7,84.1"/>
<path d="M459.5,84.1c-2.1,0-3.8-0.3-5.2-0.9c-1.4-0.6-2.6-1.5-3.4-2.8c-0.8-1.2-1.4-2.6-1.8-4.2c-0.4-1.6-0.6-3.5-0.6-5.6V59.8
	c0-2.2,0.2-4,0.6-5.6c0.4-1.6,1-3,1.8-4.2c0.8-1.2,2-2.1,3.4-2.8c1.4-0.6,3.2-0.9,5.2-0.9c4,0,6.8,1.2,8.5,3.5
	c1.7,2.3,2.5,5.7,2.5,10.1v10.7c0,4.4-0.8,7.8-2.5,10.1C466.4,82.9,463.5,84.1,459.5,84.1 M459.5,79c0.6,0,1.2-0.1,1.7-0.3
	c0.5-0.2,0.9-0.5,1.1-0.9c0.3-0.4,0.5-0.9,0.7-1.3c0.2-0.4,0.3-1,0.4-1.7c0.1-0.8,0.1-1.4,0.1-1.8c0-0.5,0-1.2,0-2.1V59.4
	c0-0.8,0-1.4,0-1.8c0-0.4,0-0.9-0.1-1.6c0-0.7-0.1-1.2-0.2-1.6c-0.1-0.4-0.2-0.8-0.4-1.3c-0.2-0.5-0.4-0.8-0.7-1.1
	c-0.3-0.2-0.6-0.4-1.1-0.6c-0.4-0.2-0.9-0.3-1.5-0.3c-0.6,0-1,0.1-1.5,0.3c-0.4,0.2-0.8,0.4-1.1,0.6c-0.3,0.2-0.5,0.6-0.7,1.1
	c-0.2,0.5-0.4,0.9-0.4,1.3c-0.1,0.4-0.2,0.9-0.2,1.6c0,0.7-0.1,1.2-0.1,1.6c0,0.4,0,1,0,1.8v11.5c0,0.8,0,1.4,0,1.8
	c0,0.4,0,0.9,0.1,1.6c0,0.7,0.1,1.2,0.2,1.6c0.1,0.4,0.2,0.8,0.4,1.2c0.2,0.5,0.4,0.8,0.7,1.1c0.3,0.2,0.6,0.4,1.1,0.6
	C458.5,78.9,459,79,459.5,79"/>
<path d="M476.9,83.5V46.7h6.4v3.5c2.6-2.8,5.5-4.1,8.9-4.1c3.2,0,5.2,1.6,6.1,4.7c2.6-3.1,5.8-4.7,9.4-4.7c2,0,3.6,0.7,4.8,2.1
	c1.2,1.4,1.9,3.6,1.9,6.5v28.9H508V55c0-1.7-0.3-2.9-0.8-3.5c-0.6-0.7-1.4-1-2.4-1c-2,0-3.9,1-5.9,3c0,0.2,0,0.6,0,1.1v28.9h-6.4V55
	c0-1.7-0.3-2.9-0.8-3.5c-0.6-0.7-1.4-1-2.4-1c-1.9,0-3.9,1-5.9,3v30H476.9z"/>
<path class="st0" d="M133.1,57.9c0,28.6-23.2,51.8-51.8,51.8c-28.6,0-51.8-23.2-51.8-51.8S52.7,6.1,81.3,6.1
	C110,6.1,133.1,29.3,133.1,57.9"/>
<path class="st1" d="M93.6,35.5c2.7,0,4.9,0.3,6.8,0.9c1.9,0.6,3.4,1.4,4.6,2.5c1.2,1.1,2.1,2.4,2.7,3.8c0.6,1.5,0.9,3.1,0.9,4.8
	c0,2.7-0.5,4.8-1.6,6.5s-2.7,2.9-4.7,3.8c2.1,0.9,3.7,2.2,4.8,3.9c1.1,1.7,1.7,3.9,1.7,6.6c0,1.7-0.3,3.3-0.9,4.7
	c-0.6,1.5-1.5,2.7-2.7,3.8c-1.2,1.1-2.7,1.9-4.6,2.6s-4.1,0.9-6.8,0.9H71.2v-7.8h22.6c2.3,0,4-0.5,5.1-1.5c1.1-1,1.7-2.4,1.7-4.2
	c0-3.6-2.3-5.4-6.8-5.4H80v-7.1h13.6c2.3,0,4-0.4,5.1-1.3c1.1-0.9,1.7-2.2,1.7-4.1c0-1.7-0.5-3-1.6-4c-1.1-1-2.8-1.5-5.2-1.5H71.3
	v-7.8H93.6z"/>
<path class="st1" d="M73.9,35.4c2.2,0,4.1,0.4,5.7,1.1c1.6,0.7,2.9,1.7,3.9,2.9c1,1.2,1.8,2.7,2.3,4.3c0.5,1.6,0.7,3.4,0.7,5.1
	c0,1.7-0.2,3.4-0.7,5.1c-0.4,1.7-1.2,3.2-2.2,4.5c-1,1.3-2.3,2.4-3.9,3.3c-1.6,0.8-3.5,1.3-5.8,1.3l-12.1,0c-0.7,0-1,0.4-1,1.1
	l0,16.3l-6.8,0l0-17.8c0-2.5,0.5-4.4,1.4-5.5c1-1.1,2.5-1.7,4.7-1.7l14,0c1,0,1.8-0.2,2.5-0.5c0.7-0.4,1.3-0.8,1.7-1.4
	c0.4-0.6,0.7-1.2,1-2c0.2-0.7,0.3-1.5,0.3-2.3c0-1.6-0.4-3.1-1.3-4.2c-0.9-1.2-2.2-1.8-4.1-1.8l-20.3,0l0-7.9L73.9,35.4z"/>
<g>
	<path d="M522,11.9v2.7h-4.4v14h-3.3v-14h-4.4v-2.7H522z"/>
	<path d="M542.6,11.9v16.7h-3.3V17.8l-4.5,10.8h-2.5l-4.5-10.8v10.8h-3.3V11.9h3.8l5.3,12.4l5.3-12.4H542.6z"/>
</g>
</svg>
